<svg width="47" height="64" viewBox="0 0 47 64" fill="none" xmlns="http://www.w3.org/2000/svg">
<path d="M23.04 30.52C23.2107 31.2027 23.296 32.056 23.296 33.08C23.296 34.0613 23.2107 34.9147 23.04 35.64C23.2107 36.3227 23.296 37.176 23.296 38.2C23.296 39.1813 23.2107 40.0347 23.04 40.76H20.48C20.6507 41.4427 20.736 42.296 20.736 43.32C20.736 44.3013 20.6507 45.1547 20.48 45.88H17.92C18.0907 46.5627 18.176 47.416 18.176 48.44C18.176 49.4213 18.0907 50.2747 17.92 51H2.56C2.38933 50.2747 2.304 49.4213 2.304 48.44C2.304 47.416 2.38933 46.5627 2.56 45.88C2.38933 45.1547 2.304 44.3013 2.304 43.32C2.304 42.296 2.38933 41.4427 2.56 40.76C2.38933 40.0347 2.304 39.1813 2.304 38.2C2.304 37.176 2.38933 36.3227 2.56 35.64C2.38933 34.9147 2.304 34.0613 2.304 33.08C2.304 32.056 2.38933 31.2027 2.56 30.52C2.38933 29.7947 2.304 28.9413 2.304 27.96C2.304 26.936 2.38933 26.0827 2.56 25.4C2.38933 24.6747 2.304 23.8213 2.304 22.84C2.304 21.816 2.38933 20.9627 2.56 20.28C2.38933 19.5547 2.304 18.7013 2.304 17.72C2.304 16.696 2.38933 15.8427 2.56 15.16H17.92C18.0907 15.8427 18.176 16.696 18.176 17.72C18.176 18.7013 18.0907 19.5547 17.92 20.28H20.48C20.6507 20.9627 20.736 21.816 20.736 22.84C20.736 23.8213 20.6507 24.6747 20.48 25.4H23.04C23.2107 26.0827 23.296 26.936 23.296 27.96C23.296 28.9413 23.2107 29.7947 23.04 30.52ZM17.92 40.76C17.7493 40.0347 17.664 39.1813 17.664 38.2C17.664 37.176 17.7493 36.3227 17.92 35.64C17.7493 34.9147 17.664 34.0613 17.664 33.08C17.664 32.056 17.7493 31.2027 17.92 30.52C17.7493 29.7947 17.664 28.9413 17.664 27.96C17.664 26.936 17.7493 26.0827 17.92 25.4H15.36C15.1893 24.6747 15.104 23.8213 15.104 22.84C15.104 21.816 15.1893 20.9627 15.36 20.28H7.68C7.85067 20.9627 7.936 21.816 7.936 22.84C7.936 23.8213 7.85067 24.6747 7.68 25.4C7.85067 26.0827 7.936 26.936 7.936 27.96C7.936 28.9413 7.85067 29.7947 7.68 30.52C7.85067 31.2027 7.936 32.056 7.936 33.08C7.936 34.0613 7.85067 34.9147 7.68 35.64C7.85067 36.3227 7.936 37.176 7.936 38.2C7.936 39.1813 7.85067 40.0347 7.68 40.76C7.85067 41.4427 7.936 42.296 7.936 43.32C7.936 44.3013 7.85067 45.1547 7.68 45.88H15.36C15.1893 45.1547 15.104 44.3013 15.104 43.32C15.104 42.296 15.1893 41.4427 15.36 40.76H17.92ZM44.185 30.52C44.3557 31.2027 44.441 32.056 44.441 33.08C44.441 34.0613 44.3557 34.9147 44.185 35.64C44.3557 36.3227 44.441 37.176 44.441 38.2C44.441 39.1813 44.3557 40.0347 44.185 40.76C44.3557 41.4427 44.441 42.296 44.441 43.32C44.441 44.3013 44.3557 45.1547 44.185 45.88H41.625C41.7957 46.5627 41.881 47.416 41.881 48.44C41.881 49.4213 41.7957 50.2747 41.625 51H28.825C28.6543 50.2747 28.569 49.4213 28.569 48.44C28.569 47.416 28.6543 46.5627 28.825 45.88H26.265C26.0943 45.1547 26.009 44.3013 26.009 43.32C26.009 42.296 26.0943 41.4427 26.265 40.76H23.705C23.5343 40.0347 23.449 39.1813 23.449 38.2C23.449 37.176 23.5343 36.3227 23.705 35.64C23.5343 34.9147 23.449 34.0613 23.449 33.08C23.449 32.056 23.5343 31.2027 23.705 30.52C23.5343 29.7947 23.449 28.9413 23.449 27.96C23.449 26.936 23.5343 26.0827 23.705 25.4H26.265C26.0943 24.6747 26.009 23.8213 26.009 22.84C26.009 21.816 26.0943 20.9627 26.265 20.28H28.825C28.6543 19.5547 28.569 18.7013 28.569 17.72C28.569 16.696 28.6543 15.8427 28.825 15.16H41.625C41.7957 15.8427 41.881 16.696 41.881 17.72C41.881 18.7013 41.7957 19.5547 41.625 20.28H44.185C44.3557 20.9627 44.441 21.816 44.441 22.84C44.441 23.8213 44.3557 24.6747 44.185 25.4H39.065C38.8943 24.6747 38.809 23.8213 38.809 22.84C38.809 21.816 38.8943 20.9627 39.065 20.28H31.385C31.5557 20.9627 31.641 21.816 31.641 22.84C31.641 23.8213 31.5557 24.6747 31.385 25.4H28.825C28.9957 26.0827 29.081 26.936 29.081 27.96C29.081 28.9413 28.9957 29.7947 28.825 30.52C28.9957 31.2027 29.081 32.056 29.081 33.08C29.081 34.0613 28.9957 34.9147 28.825 35.64C28.9957 36.3227 29.081 37.176 29.081 38.2C29.081 39.1813 28.9957 40.0347 28.825 40.76H31.385C31.5557 41.4427 31.641 42.296 31.641 43.32C31.641 44.3013 31.5557 45.1547 31.385 45.88H39.065C38.8943 45.1547 38.809 44.3013 38.809 43.32C38.809 42.296 38.8943 41.4427 39.065 40.76C38.8943 40.0347 38.809 39.1813 38.809 38.2C38.809 37.176 38.8943 36.3227 39.065 35.64H35.225C35.0543 34.9147 34.969 34.0613 34.969 33.08C34.969 32.056 35.0543 31.2027 35.225 30.52H44.185Z" fill="#87286A"/>
</svg>
